<svg xmlns="http://www.w3.org/2000/svg" viewBox="0 0 187.73 76.23"><defs><style>.cls-1{opacity:0.5;}.cls-2,.cls-257{fill:#fff;}.cls-2{opacity:0;}.cls-3{fill:#fefefe;opacity:0;}.cls-4{fill:#fdfdfd;opacity:0.01;}.cls-5{fill:#fcfcfc;opacity:0.01;}.cls-6{fill:#fbfbfb;opacity:0.02;}.cls-7{fill:#fafafa;opacity:0.02;}.cls-8{fill:#f9f9f9;opacity:0.02;}.cls-9{fill:#f8f8f8;opacity:0.03;}.cls-10{fill:#f7f7f7;opacity:0.03;}.cls-11{fill:#f6f6f6;opacity:0.04;}.cls-12{fill:#f5f5f5;opacity:0.04;}.cls-13{fill:#f4f4f4;opacity:0.04;}.cls-14{fill:#f3f3f3;opacity:0.05;}.cls-15{fill:#f2f2f2;opacity:0.05;}.cls-16{fill:#f1f1f1;opacity:0.05;}.cls-17{fill:#f0f0f0;opacity:0.06;}.cls-18{fill:#efefef;opacity:0.06;}.cls-19{fill:#eee;opacity:0.07;}.cls-20{fill:#ededed;opacity:0.07;}.cls-21,.cls-258{fill:#ececec;}.cls-21{opacity:0.07;}.cls-22{fill:#ebebeb;opacity:0.08;}.cls-23{fill:#eaeaea;opacity:0.08;}.cls-24{fill:#e9e9e9;opacity:0.09;}.cls-25{fill:#e8e8e8;opacity:0.09;}.cls-26{fill:#e7e7e7;opacity:0.09;}.cls-27{fill:#e6e6e6;opacity:0.1;}.cls-28{fill:#e5e5e5;opacity:0.1;}.cls-29{fill:#e4e4e4;opacity:0.11;}.cls-30{fill:#e3e3e3;opacity:0.11;}.cls-31{fill:#e2e2e2;opacity:0.11;}.cls-32{fill:#e1e1e1;opacity:0.12;}.cls-33{fill:#e0e0e0;opacity:0.12;}.cls-34{fill:#dfdfdf;opacity:0.13;}.cls-35{fill:#dedede;opacity:0.13;}.cls-36{fill:#ddd;opacity:0.13;}.cls-37{fill:#dcdcdc;opacity:0.14;}.cls-38{fill:#dbdbdb;opacity:0.14;}.cls-39{fill:#dadada;opacity:0.15;}.cls-40{fill:#d9d9d9;opacity:0.15;}.cls-41{fill:#d8d8d8;opacity:0.15;}.cls-42{fill:#d7d7d7;opacity:0.16;}.cls-43{fill:#d6d6d6;opacity:0.16;}.cls-44{fill:#d5d5d5;opacity:0.16;}.cls-45{fill:#d4d4d4;opacity:0.17;}.cls-46{fill:#d3d3d3;opacity:0.17;}.cls-47{fill:#d2d2d2;opacity:0.18;}.cls-48{fill:#d1d1d1;opacity:0.18;}.cls-49{fill:#d0d0d0;opacity:0.18;}.cls-50{fill:#cfcfcf;opacity:0.19;}.cls-51{fill:#cecece;opacity:0.19;}.cls-52{fill:#cdcdcd;opacity:0.2;}.cls-53{fill:#ccc;opacity:0.2;}.cls-54{fill:#cbcbcb;opacity:0.2;}.cls-55{fill:#cacaca;opacity:0.21;}.cls-56{fill:#c9c9c9;opacity:0.21;}.cls-57{fill:#c8c8c8;opacity:0.22;}.cls-58{fill:#c7c7c7;opacity:0.22;}.cls-59{fill:#c6c6c6;opacity:0.22;}.cls-60{fill:#c5c5c5;opacity:0.23;}.cls-61{fill:#c4c4c4;opacity:0.23;}.cls-62{fill:#c3c3c3;opacity:0.24;}.cls-63{fill:#c2c2c2;opacity:0.24;}.cls-64{fill:#c1c1c1;opacity:0.24;}.cls-65{fill:silver;opacity:0.25;}.cls-66{fill:#bfbfbf;opacity:0.25;}.cls-67{fill:#bebebe;opacity:0.25;}.cls-68{fill:#bdbdbd;opacity:0.26;}.cls-69{fill:#bcbcbc;opacity:0.26;}.cls-70{fill:#bbb;opacity:0.27;}.cls-71{fill:#bababa;opacity:0.27;}.cls-72{fill:#b9b9b9;opacity:0.27;}.cls-73{fill:#b8b8b8;opacity:0.28;}.cls-74{fill:#b7b7b7;opacity:0.28;}.cls-75{fill:#b6b6b6;opacity:0.29;}.cls-76{fill:#b5b5b5;opacity:0.29;}.cls-77{fill:#b4b4b4;opacity:0.29;}.cls-78{fill:#b3b3b3;opacity:0.3;}.cls-79{fill:#b2b2b2;opacity:0.3;}.cls-80{fill:#b1b1b1;opacity:0.31;}.cls-81{fill:#b0b0b0;opacity:0.31;}.cls-82{fill:#afafaf;opacity:0.31;}.cls-83{fill:#aeaeae;opacity:0.32;}.cls-84{fill:#adadad;opacity:0.32;}.cls-85{fill:#acacac;opacity:0.33;}.cls-86{fill:#ababab;opacity:0.33;}.cls-87{fill:#aaa;opacity:0.33;}.cls-88{fill:#a9a9a9;opacity:0.34;}.cls-89{fill:#a8a8a8;opacity:0.34;}.cls-90{fill:#a7a7a7;opacity:0.35;}.cls-91{fill:#a6a6a6;opacity:0.35;}.cls-92{fill:#a5a5a5;opacity:0.35;}.cls-93{fill:#a4a4a4;opacity:0.36;}.cls-94{fill:#a3a3a3;opacity:0.36;}.cls-95{fill:#a2a2a2;opacity:0.36;}.cls-96{fill:#a1a1a1;opacity:0.37;}.cls-97{fill:#a0a0a0;opacity:0.37;}.cls-98{fill:#9f9f9f;opacity:0.38;}.cls-99{fill:#9e9e9e;opacity:0.38;}.cls-100{fill:#9d9d9d;opacity:0.38;}.cls-101{fill:#9c9c9c;opacity:0.39;}.cls-102{fill:#9b9b9b;opacity:0.39;}.cls-103{fill:#9a9a9a;opacity:0.4;}.cls-104{fill:#999;opacity:0.4;}.cls-105{fill:#989898;opacity:0.4;}.cls-106{fill:#979797;opacity:0.41;}.cls-107{fill:#969696;opacity:0.41;}.cls-108{fill:#959595;opacity:0.42;}.cls-109{fill:#949494;opacity:0.42;}.cls-110{fill:#939393;opacity:0.42;}.cls-111{fill:#929292;opacity:0.43;}.cls-112{fill:#919191;opacity:0.43;}.cls-113{fill:#909090;opacity:0.44;}.cls-114{fill:#8f8f8f;opacity:0.44;}.cls-115{fill:#8e8e8e;opacity:0.44;}.cls-116{fill:#8d8d8d;opacity:0.45;}.cls-117{fill:#8c8c8c;opacity:0.45;}.cls-118{fill:#8b8b8b;opacity:0.45;}.cls-119{fill:#8a8a8a;opacity:0.46;}.cls-120{fill:#898989;opacity:0.46;}.cls-121{fill:#888;opacity:0.47;}.cls-122{fill:#878787;opacity:0.47;}.cls-123{fill:#868686;opacity:0.47;}.cls-124{fill:#858585;opacity:0.48;}.cls-125{fill:#848484;opacity:0.48;}.cls-126{fill:#838383;opacity:0.49;}.cls-127{fill:#828282;opacity:0.49;}.cls-128{fill:#818181;opacity:0.49;}.cls-129{fill:gray;opacity:0.5;}.cls-130{fill:#7f7f7f;opacity:0.5;}.cls-131{fill:#7e7e7e;opacity:0.51;}.cls-132{fill:#7d7d7d;opacity:0.51;}.cls-133{fill:#7c7c7c;opacity:0.51;}.cls-134{fill:#7b7b7b;opacity:0.52;}.cls-135{fill:#7a7a7a;opacity:0.52;}.cls-136{fill:#797979;opacity:0.53;}.cls-137{fill:#787878;opacity:0.53;}.cls-138{fill:#777;opacity:0.53;}.cls-139{fill:#767676;opacity:0.54;}.cls-140{fill:#757575;opacity:0.54;}.cls-141{fill:#747474;opacity:0.55;}.cls-142{fill:#737373;opacity:0.55;}.cls-143{fill:#727272;opacity:0.55;}.cls-144{fill:#717171;opacity:0.56;}.cls-145{fill:#707070;opacity:0.56;}.cls-146{fill:#6f6f6f;opacity:0.56;}.cls-147{fill:#6e6e6e;opacity:0.57;}.cls-148{fill:#6d6d6d;opacity:0.57;}.cls-149{fill:#6c6c6c;opacity:0.58;}.cls-150{fill:#6b6b6b;opacity:0.58;}.cls-151{fill:#6a6a6a;opacity:0.58;}.cls-152{fill:#696969;opacity:0.59;}.cls-153{fill:#686868;opacity:0.59;}.cls-154{fill:#676767;opacity:0.6;}.cls-155{fill:#666;opacity:0.6;}.cls-156{fill:#656565;opacity:0.6;}.cls-157{fill:#646464;opacity:0.61;}.cls-158{fill:#636363;opacity:0.61;}.cls-159{fill:#626262;opacity:0.62;}.cls-160{fill:#616161;opacity:0.62;}.cls-161{fill:#606060;opacity:0.62;}.cls-162{fill:#5f5f5f;opacity:0.63;}.cls-163{fill:#5e5e5e;opacity:0.63;}.cls-164{fill:#5d5d5d;opacity:0.64;}.cls-165{fill:#5c5c5c;opacity:0.64;}.cls-166{fill:#5b5b5b;opacity:0.64;}.cls-167{fill:#5a5a5a;opacity:0.65;}.cls-168{fill:#595959;opacity:0.65;}.cls-169{fill:#585858;opacity:0.65;}.cls-170{fill:#575757;opacity:0.66;}.cls-171{fill:#565656;opacity:0.66;}.cls-172{fill:#555;opacity:0.67;}.cls-173{fill:#545454;opacity:0.67;}.cls-174{fill:#535353;opacity:0.67;}.cls-175{fill:#525252;opacity:0.68;}.cls-176{fill:#515151;opacity:0.68;}.cls-177{fill:#505050;opacity:0.69;}.cls-178{fill:#4f4f4f;opacity:0.69;}.cls-179{fill:#4e4e4e;opacity:0.69;}.cls-180{fill:#4d4d4d;opacity:0.7;}.cls-181{fill:#4c4c4c;opacity:0.7;}.cls-182{fill:#4b4b4b;opacity:0.71;}.cls-183{fill:#4a4a4a;opacity:0.71;}.cls-184{fill:#494949;opacity:0.71;}.cls-185{fill:#484848;opacity:0.72;}.cls-186{fill:#474747;opacity:0.72;}.cls-187{fill:#464646;opacity:0.73;}.cls-188{fill:#454545;opacity:0.73;}.cls-189{fill:#444;opacity:0.73;}.cls-190{fill:#434343;opacity:0.74;}.cls-191{fill:#424242;opacity:0.74;}.cls-192{fill:#414141;opacity:0.75;}.cls-193{fill:#404040;opacity:0.75;}.cls-194{fill:#3f3f3f;opacity:0.75;}.cls-195{fill:#3e3e3e;opacity:0.76;}.cls-196{fill:#3d3d3d;opacity:0.76;}.cls-197{fill:#3c3c3c;opacity:0.76;}.cls-198{fill:#3b3b3b;opacity:0.77;}.cls-199{fill:#3a3a3a;opacity:0.77;}.cls-200{fill:#393939;opacity:0.78;}.cls-201{fill:#383838;opacity:0.78;}.cls-202{fill:#373737;opacity:0.78;}.cls-203{fill:#363636;opacity:0.79;}.cls-204{fill:#353535;opacity:0.79;}.cls-205{fill:#343434;opacity:0.8;}.cls-206{fill:#333;opacity:0.8;}.cls-207{fill:#323232;opacity:0.8;}.cls-208{fill:#313131;opacity:0.81;}.cls-209{fill:#303030;opacity:0.81;}.cls-210{fill:#2f2f2f;opacity:0.82;}.cls-211{fill:#2e2e2e;opacity:0.82;}.cls-212{fill:#2d2d2d;opacity:0.82;}.cls-213{fill:#2c2c2c;opacity:0.83;}.cls-214{fill:#2b2b2b;opacity:0.83;}.cls-215{fill:#2a2a2a;opacity:0.84;}.cls-216{fill:#292929;opacity:0.84;}.cls-217{fill:#282828;opacity:0.84;}.cls-218{fill:#272727;opacity:0.85;}.cls-219{fill:#262626;opacity:0.85;}.cls-220{fill:#252525;opacity:0.85;}.cls-221{fill:#242424;opacity:0.86;}.cls-222{fill:#232323;opacity:0.86;}.cls-223{fill:#222;opacity:0.87;}.cls-224{fill:#212121;opacity:0.87;}.cls-225{fill:#202020;opacity:0.87;}.cls-226{fill:#1f1f1f;opacity:0.88;}.cls-227{fill:#1e1e1e;opacity:0.88;}.cls-228{fill:#1d1d1d;opacity:0.89;}.cls-229{fill:#1c1c1c;opacity:0.89;}.cls-230{fill:#1b1b1b;opacity:0.89;}.cls-231{fill:#1a1a1a;opacity:0.9;}.cls-232{fill:#191919;opacity:0.9;}.cls-233{fill:#181818;opacity:0.91;}.cls-234{fill:#171717;opacity:0.91;}.cls-235{fill:#161616;opacity:0.91;}.cls-236{fill:#151515;opacity:0.92;}.cls-237{fill:#141414;opacity:0.92;}.cls-238{fill:#131313;opacity:0.93;}.cls-239{fill:#121212;opacity:0.93;}.cls-240{fill:#111;opacity:0.93;}.cls-241{fill:#101010;opacity:0.94;}.cls-242{fill:#0f0f0f;opacity:0.94;}.cls-243{fill:#0e0e0e;opacity:0.95;}.cls-244{fill:#0d0d0d;opacity:0.95;}.cls-245{fill:#0c0c0c;opacity:0.95;}.cls-246{fill:#0b0b0b;opacity:0.96;}.cls-247{fill:#0a0a0a;opacity:0.96;}.cls-248{fill:#090909;opacity:0.96;}.cls-249{fill:#080808;opacity:0.97;}.cls-250{fill:#070707;opacity:0.97;}.cls-251{fill:#060606;opacity:0.98;}.cls-252{fill:#050505;opacity:0.98;}.cls-253{fill:#040404;opacity:0.98;}.cls-254{fill:#030303;opacity:0.99;}.cls-255{fill:#020202;opacity:0.99;}.cls-256{fill:#010101;opacity:1;}.cls-259{fill:#ee4137;}.cls-260{fill:#f05a2a;}.cls-261{fill:#1b75ba;}.cls-262{fill:#8ac440;}.cls-263{fill:#59595c;}.cls-264{fill:#895d3b;}.cls-265{fill:#652f8e;}</style></defs><title>asrtrabuana logo</title><g id="ELEMENTS"><g class="cls-1"><path class="cls-2" d="M59.84,68.17H15.89v-44a6.54,6.54,0,0,1,6.54-6.54H59.84a6.54,6.54,0,0,1,6.55,6.54V61.62A6.55,6.55,0,0,1,59.84,68.17Z"/><path class="cls-3" d="M59.81,68.14H15.86v-44a6.54,6.54,0,0,1,6.55-6.54h37.4a6.54,6.54,0,0,1,6.55,6.54V61.59A6.55,6.55,0,0,1,59.81,68.14Z"/><path class="cls-4" d="M59.78,68.11H15.83v-44a6.54,6.54,0,0,1,6.55-6.54h37.4a6.54,6.54,0,0,1,6.55,6.54V61.56A6.55,6.55,0,0,1,59.78,68.11Z"/><path class="cls-5" d="M59.75,68.08H15.8v-44a6.54,6.54,0,0,1,6.55-6.54h37.4a6.54,6.54,0,0,1,6.55,6.54V61.53A6.55,6.55,0,0,1,59.75,68.08Z"/><path class="cls-6" d="M59.72,68.05H15.77v-44a6.54,6.54,0,0,1,6.55-6.54h37.4a6.54,6.54,0,0,1,6.55,6.54V61.5A6.55,6.55,0,0,1,59.72,68.05Z"/><path class="cls-7" d="M59.69,68H15.74V24.07a6.55,6.55,0,0,1,6.55-6.55h37.4a6.55,6.55,0,0,1,6.55,6.55v37.4A6.55,6.55,0,0,1,59.69,68Z"/><path class="cls-8" d="M59.66,68H15.71V24a6.55,6.55,0,0,1,6.55-6.55h37.4A6.55,6.55,0,0,1,66.21,24v37.4A6.55,6.55,0,0,1,59.66,68Z"/><path class="cls-9" d="M59.63,68H15.68V24a6.55,6.55,0,0,1,6.55-6.55h37.4A6.55,6.55,0,0,1,66.18,24v37.4A6.55,6.55,0,0,1,59.63,68Z"/><path class="cls-10" d="M59.61,67.93h-44V24a6.55,6.55,0,0,1,6.55-6.55H59.61A6.54,6.54,0,0,1,66.15,24v37.4A6.54,6.54,0,0,1,59.61,67.93Z"/><path class="cls-11" d="M59.58,67.9h-44V24a6.55,6.55,0,0,1,6.55-6.55H59.58A6.54,6.54,0,0,1,66.12,24v37.4A6.54,6.54,0,0,1,59.58,67.9Z"/><path class="cls-12" d="M59.55,67.87h-44V23.92a6.55,6.55,0,0,1,6.55-6.55H59.55a6.54,6.54,0,0,1,6.54,6.55v37.4A6.54,6.54,0,0,1,59.55,67.87Z"/><path class="cls-13" d="M59.52,67.84h-44V23.89a6.55,6.55,0,0,1,6.55-6.55H59.52a6.54,6.54,0,0,1,6.54,6.55v37.4A6.54,6.54,0,0,1,59.52,67.84Z"/><path class="cls-14" d="M59.49,67.81H15.54V23.86a6.54,6.54,0,0,1,6.54-6.55H59.49A6.55,6.55,0,0,1,66,23.86V61.27A6.55,6.55,0,0,1,59.49,67.81Z"/><path class="cls-15" d="M59.46,67.78H15.51V23.83a6.54,6.54,0,0,1,6.54-6.55H59.46A6.55,6.55,0,0,1,66,23.83V61.24A6.55,6.55,0,0,1,59.46,67.78Z"/><path class="cls-16" d="M59.43,67.75H15.48V23.8A6.55,6.55,0,0,1,22,17.25H59.43A6.55,6.55,0,0,1,66,23.8V61.21A6.54,6.54,0,0,1,59.43,67.75Z"/><path class="cls-17" d="M59.4,67.72H15.45V23.77A6.55,6.55,0,0,1,22,17.22H59.4A6.55,6.55,0,0,1,66,23.77V61.18A6.54,6.54,0,0,1,59.4,67.72Z"/><path class="cls-18" d="M59.37,67.7H15.42v-44A6.54,6.54,0,0,1,22,17.2H59.37a6.54,6.54,0,0,1,6.55,6.54V61.15A6.55,6.55,0,0,1,59.37,67.7Z"/><path class="cls-19" d="M59.34,67.67H15.39v-44a6.54,6.54,0,0,1,6.55-6.54h37.4a6.54,6.54,0,0,1,6.55,6.54V61.12A6.55,6.55,0,0,1,59.34,67.67Z"/><path class="cls-20" d="M59.31,67.64H15.36v-44a6.54,6.54,0,0,1,6.55-6.54h37.4a6.54,6.54,0,0,1,6.55,6.54V61.09A6.55,6.55,0,0,1,59.31,67.64Z"/><path class="cls-21" d="M59.28,67.61H15.33v-44a6.54,6.54,0,0,1,6.55-6.54h37.4a6.54,6.54,0,0,1,6.55,6.54V61.06A6.55,6.55,0,0,1,59.28,67.61Z"/><path class="cls-22" d="M59.25,67.58H15.3v-44a6.54,6.54,0,0,1,6.55-6.54h37.4a6.54,6.54,0,0,1,6.55,6.54V61A6.55,6.55,0,0,1,59.25,67.58Z"/><path class="cls-23" d="M59.22,67.55H15.27V23.6a6.55,6.55,0,0,1,6.55-6.55h37.4a6.55,6.55,0,0,1,6.55,6.55V61A6.55,6.55,0,0,1,59.22,67.55Z"/><path class="cls-24" d="M59.19,67.52H15.24V23.57A6.55,6.55,0,0,1,21.79,17h37.4a6.55,6.55,0,0,1,6.55,6.55V61A6.55,6.55,0,0,1,59.19,67.52Z"/><path class="cls-25" d="M59.16,67.49H15.21V23.54A6.55,6.55,0,0,1,21.76,17h37.4a6.55,6.55,0,0,1,6.55,6.55v37.4A6.55,6.55,0,0,1,59.16,67.49Z"/><path class="cls-26" d="M59.14,67.46h-44V23.51A6.55,6.55,0,0,1,21.73,17H59.14a6.54,6.54,0,0,1,6.54,6.55v37.4A6.54,6.54,0,0,1,59.14,67.46Z"/><path class="cls-27" d="M59.11,67.43h-44V23.48a6.55,6.55,0,0,1,6.55-6.55H59.11a6.54,6.54,0,0,1,6.54,6.55v37.4A6.54,6.54,0,0,1,59.11,67.43Z"/><path class="cls-28" d="M59.08,67.4h-44V23.45a6.55,6.55,0,0,1,6.55-6.55H59.08a6.54,6.54,0,0,1,6.54,6.55v37.4A6.54,6.54,0,0,1,59.08,67.4Z"/><path class="cls-29" d="M59.05,67.37h-44V23.42a6.55,6.55,0,0,1,6.55-6.55H59.05a6.54,6.54,0,0,1,6.54,6.55v37.4A6.54,6.54,0,0,1,59.05,67.37Z"/><path class="cls-30" d="M59,67.34H15.07V23.39a6.54,6.54,0,0,1,6.54-6.55H59a6.55,6.55,0,0,1,6.55,6.55V60.8A6.55,6.55,0,0,1,59,67.34Z"/><path class="cls-31" d="M59,67.31H15V23.36a6.54,6.54,0,0,1,6.54-6.55H59a6.55,6.55,0,0,1,6.55,6.55V60.77A6.55,6.55,0,0,1,59,67.31Z"/><path class="cls-32" d="M59,67.28H15V23.33a6.55,6.55,0,0,1,6.54-6.55H59a6.55,6.55,0,0,1,6.55,6.55V60.74A6.54,6.54,0,0,1,59,67.28Z"/><path class="cls-33" d="M58.93,67.25H15V23.3a6.55,6.55,0,0,1,6.54-6.55H58.93a6.55,6.55,0,0,1,6.55,6.55V60.71A6.54,6.54,0,0,1,58.93,67.25Z"/><path class="cls-34" d="M58.9,67.23H15v-44a6.54,6.54,0,0,1,6.54-6.54H58.9a6.54,6.54,0,0,1,6.55,6.54V60.68A6.55,6.55,0,0,1,58.9,67.23Z"/><path class="cls-35" d="M58.87,67.2H14.92v-44a6.54,6.54,0,0,1,6.55-6.54h37.4a6.54,6.54,0,0,1,6.55,6.54V60.65A6.55,6.55,0,0,1,58.87,67.2Z"/><path class="cls-36" d="M58.84,67.17H14.89v-44a6.54,6.54,0,0,1,6.55-6.54h37.4a6.54,6.54,0,0,1,6.55,6.54V60.62A6.55,6.55,0,0,1,58.84,67.17Z"/><path class="cls-37" d="M58.81,67.14H14.86v-44a6.54,6.54,0,0,1,6.55-6.54h37.4a6.54,6.54,0,0,1,6.55,6.54V60.59A6.55,6.55,0,0,1,58.81,67.14Z"/><path class="cls-38" d="M58.78,67.11H14.83v-44a6.54,6.54,0,0,1,6.55-6.54h37.4a6.54,6.54,0,0,1,6.55,6.54V60.56A6.55,6.55,0,0,1,58.78,67.11Z"/><path class="cls-39" d="M58.75,67.08H14.8V23.13a6.55,6.55,0,0,1,6.55-6.55h37.4a6.55,6.55,0,0,1,6.55,6.55v37.4A6.55,6.55,0,0,1,58.75,67.08Z"/><path class="cls-40" d="M58.72,67.05H14.77V23.1a6.55,6.55,0,0,1,6.55-6.55h37.4a6.55,6.55,0,0,1,6.55,6.55V60.5A6.55,6.55,0,0,1,58.72,67.05Z"/><path class="cls-41" d="M58.69,67H14.74V23.07a6.55,6.55,0,0,1,6.55-6.55h37.4a6.55,6.55,0,0,1,6.55,6.55v37.4A6.55,6.55,0,0,1,58.69,67Z"/><path class="cls-42" d="M58.67,67h-44V23a6.55,6.55,0,0,1,6.55-6.55H58.67A6.54,6.54,0,0,1,65.21,23v37.4A6.54,6.54,0,0,1,58.67,67Z"/><path class="cls-43" d="M58.64,67h-44V23a6.55,6.55,0,0,1,6.55-6.55H58.64A6.54,6.54,0,0,1,65.18,23v37.4A6.54,6.54,0,0,1,58.64,67Z"/><path class="cls-44" d="M58.61,66.93h-44V23a6.55,6.55,0,0,1,6.55-6.55H58.61A6.54,6.54,0,0,1,65.15,23v37.4A6.54,6.54,0,0,1,58.61,66.93Z"/><path class="cls-45" d="M58.58,66.9h-44V23a6.55,6.55,0,0,1,6.55-6.55H58.58A6.54,6.54,0,0,1,65.12,23v37.4A6.54,6.54,0,0,1,58.58,66.9Z"/><path class="cls-46" d="M58.55,66.87H14.6V22.92a6.54,6.54,0,0,1,6.54-6.55H58.55a6.55,6.55,0,0,1,6.55,6.55V60.33A6.55,6.55,0,0,1,58.55,66.87Z"/><path class="cls-47" d="M58.52,66.84H14.57V22.89a6.54,6.54,0,0,1,6.54-6.55H58.52a6.55,6.55,0,0,1,6.55,6.55V60.3A6.55,6.55,0,0,1,58.52,66.84Z"/><path class="cls-48" d="M58.49,66.81H14.54V22.86a6.55,6.55,0,0,1,6.54-6.55H58.49A6.55,6.55,0,0,1,65,22.86V60.27A6.54,6.54,0,0,1,58.49,66.81Z"/><path class="cls-49" d="M58.46,66.78H14.51V22.83a6.55,6.55,0,0,1,6.54-6.55H58.46A6.55,6.55,0,0,1,65,22.83V60.24A6.54,6.54,0,0,1,58.46,66.78Z"/><path class="cls-50" d="M58.43,66.76H14.48v-44A6.54,6.54,0,0,1,21,16.26H58.43A6.54,6.54,0,0,1,65,22.8V60.21A6.55,6.55,0,0,1,58.43,66.76Z"/><path class="cls-51" d="M58.4,66.73H14.45v-44A6.54,6.54,0,0,1,21,16.23H58.4A6.54,6.54,0,0,1,65,22.77V60.18A6.55,6.55,0,0,1,58.4,66.73Z"/><path class="cls-52" d="M58.37,66.7H14.42v-44A6.54,6.54,0,0,1,21,16.2h37.4a6.54,6.54,0,0,1,6.55,6.54V60.15A6.55,6.55,0,0,1,58.37,66.7Z"/><path class="cls-53" d="M58.34,66.67H14.39v-44a6.54,6.54,0,0,1,6.55-6.54h37.4a6.54,6.54,0,0,1,6.55,6.54V60.12A6.55,6.55,0,0,1,58.34,66.67Z"/><path class="cls-54" d="M58.31,66.64H14.36v-44a6.54,6.54,0,0,1,6.55-6.54h37.4a6.54,6.54,0,0,1,6.55,6.54V60.09A6.55,6.55,0,0,1,58.31,66.64Z"/><path class="cls-55" d="M58.28,66.61H14.33V22.66a6.55,6.55,0,0,1,6.55-6.55h37.4a6.55,6.55,0,0,1,6.55,6.55v37.4A6.55,6.55,0,0,1,58.28,66.61Z"/><path class="cls-56" d="M58.25,66.58H14.3V22.63a6.55,6.55,0,0,1,6.55-6.55h37.4a6.55,6.55,0,0,1,6.55,6.55V60A6.55,6.55,0,0,1,58.25,66.58Z"/><path class="cls-57" d="M58.22,66.55H14.27V22.6a6.55,6.55,0,0,1,6.55-6.55h37.4a6.55,6.55,0,0,1,6.55,6.55V60A6.55,6.55,0,0,1,58.22,66.55Z"/><path class="cls-58" d="M58.2,66.52h-44V22.57A6.55,6.55,0,0,1,20.79,16H58.2a6.54,6.54,0,0,1,6.54,6.55V60A6.54,6.54,0,0,1,58.2,66.52Z"/><path class="cls-59" d="M58.17,66.49h-44V22.54A6.55,6.55,0,0,1,20.76,16H58.17a6.54,6.54,0,0,1,6.54,6.55v37.4A6.54,6.54,0,0,1,58.17,66.49Z"/><path class="cls-60" d="M58.14,66.46h-44V22.51A6.55,6.55,0,0,1,20.73,16H58.14a6.54,6.54,0,0,1,6.54,6.55v37.4A6.54,6.54,0,0,1,58.14,66.46Z"/><path class="cls-61" d="M58.11,66.43h-44V22.48a6.55,6.55,0,0,1,6.55-6.55H58.11a6.54,6.54,0,0,1,6.54,6.55V59.89A6.54,6.54,0,0,1,58.11,66.43Z"/><path class="cls-62" d="M58.08,66.4H14.13V22.45a6.54,6.54,0,0,1,6.54-6.55H58.08a6.55,6.55,0,0,1,6.55,6.55V59.86A6.55,6.55,0,0,1,58.08,66.4Z"/><path class="cls-63" d="M58.05,66.37H14.1V22.42a6.54,6.54,0,0,1,6.54-6.55H58.05a6.55,6.55,0,0,1,6.55,6.55V59.83A6.55,6.55,0,0,1,58.05,66.37Z"/><path class="cls-64" d="M58,66.34H14.07V22.39a6.55,6.55,0,0,1,6.54-6.55H58a6.55,6.55,0,0,1,6.55,6.55V59.8A6.54,6.54,0,0,1,58,66.34Z"/><path class="cls-65" d="M58,66.31H14V22.36a6.55,6.55,0,0,1,6.54-6.55H58a6.55,6.55,0,0,1,6.55,6.55V59.77A6.54,6.54,0,0,1,58,66.31Z"/><path class="cls-66" d="M58,66.29H14v-44a6.54,6.54,0,0,1,6.54-6.54H58a6.54,6.54,0,0,1,6.55,6.54V59.74A6.55,6.55,0,0,1,58,66.29Z"/><path class="cls-67" d="M57.93,66.26H14v-44a6.54,6.54,0,0,1,6.55-6.54h37.4a6.54,6.54,0,0,1,6.55,6.54V59.71A6.55,6.55,0,0,1,57.93,66.26Z"/><path class="cls-68" d="M57.9,66.23H14v-44a6.54,6.54,0,0,1,6.55-6.54H57.9a6.54,6.54,0,0,1,6.55,6.54V59.68A6.55,6.55,0,0,1,57.9,66.23Z"/><path class="cls-69" d="M57.87,66.2H13.92v-44a6.54,6.54,0,0,1,6.55-6.54h37.4a6.54,6.54,0,0,1,6.55,6.54V59.65A6.55,6.55,0,0,1,57.87,66.2Z"/><path class="cls-70" d="M57.84,66.17H13.89v-44a6.54,6.54,0,0,1,6.55-6.54h37.4a6.54,6.54,0,0,1,6.55,6.54V59.62A6.55,6.55,0,0,1,57.84,66.17Z"/><path class="cls-71" d="M57.81,66.14H13.86V22.19a6.55,6.55,0,0,1,6.55-6.55h37.4a6.55,6.55,0,0,1,6.55,6.55v37.4A6.55,6.55,0,0,1,57.81,66.14Z"/><path class="cls-72" d="M57.78,66.11H13.83V22.16a6.55,6.55,0,0,1,6.55-6.55h37.4a6.55,6.55,0,0,1,6.55,6.55v37.4A6.55,6.55,0,0,1,57.78,66.11Z"/><path class="cls-73" d="M57.75,66.08H13.8V22.13a6.55,6.55,0,0,1,6.55-6.55h37.4a6.55,6.55,0,0,1,6.55,6.55v37.4A6.55,6.55,0,0,1,57.75,66.08Z"/><path class="cls-74" d="M57.73,66.05h-44V22.1a6.55,6.55,0,0,1,6.55-6.55H57.73a6.54,6.54,0,0,1,6.54,6.55V59.5A6.54,6.54,0,0,1,57.73,66.05Z"/><path class="cls-75" d="M57.7,66h-44V22.07a6.55,6.55,0,0,1,6.55-6.55H57.7a6.54,6.54,0,0,1,6.54,6.55v37.4A6.54,6.54,0,0,1,57.7,66Z"/><path class="cls-76" d="M57.67,66h-44V22a6.55,6.55,0,0,1,6.55-6.55H57.67A6.54,6.54,0,0,1,64.21,22v37.4A6.54,6.54,0,0,1,57.67,66Z"/><path class="cls-77" d="M57.64,66h-44V22a6.55,6.55,0,0,1,6.55-6.55H57.64A6.54,6.54,0,0,1,64.18,22V59.42A6.54,6.54,0,0,1,57.64,66Z"/><path class="cls-78" d="M57.61,65.93H13.66V22a6.54,6.54,0,0,1,6.54-6.55H57.61A6.55,6.55,0,0,1,64.16,22V59.39A6.55,6.55,0,0,1,57.61,65.93Z"/><path class="cls-79" d="M57.58,65.9H13.63V22a6.54,6.54,0,0,1,6.54-6.55H57.58A6.55,6.55,0,0,1,64.13,22V59.36A6.55,6.55,0,0,1,57.58,65.9Z"/><path class="cls-80" d="M57.55,65.87H13.6V21.92a6.55,6.55,0,0,1,6.54-6.55H57.55a6.55,6.55,0,0,1,6.55,6.55V59.33A6.54,6.54,0,0,1,57.55,65.87Z"/><path class="cls-81" d="M57.52,65.84H13.57V21.89a6.55,6.55,0,0,1,6.54-6.55H57.52a6.55,6.55,0,0,1,6.55,6.55V59.3A6.54,6.54,0,0,1,57.52,65.84Z"/><path class="cls-82" d="M57.49,65.82H13.54v-44a6.54,6.54,0,0,1,6.54-6.54H57.49A6.54,6.54,0,0,1,64,21.86V59.27A6.55,6.55,0,0,1,57.49,65.82Z"/><path class="cls-83" d="M57.46,65.79H13.51v-44a6.54,6.54,0,0,1,6.55-6.54h37.4A6.54,6.54,0,0,1,64,21.83V59.24A6.55,6.55,0,0,1,57.46,65.79Z"/><path class="cls-84" d="M57.43,65.76H13.48v-44A6.54,6.54,0,0,1,20,15.26h37.4A6.54,6.54,0,0,1,64,21.8V59.21A6.55,6.55,0,0,1,57.43,65.76Z"/><path class="cls-85" d="M57.4,65.73H13.45v-44A6.54,6.54,0,0,1,20,15.23H57.4A6.54,6.54,0,0,1,64,21.77V59.18A6.55,6.55,0,0,1,57.4,65.73Z"/><path class="cls-86" d="M57.37,65.7H13.42v-44A6.54,6.54,0,0,1,20,15.2h37.4a6.54,6.54,0,0,1,6.55,6.54V59.15A6.55,6.55,0,0,1,57.37,65.7Z"/><path class="cls-87" d="M57.34,65.67H13.39V21.72a6.55,6.55,0,0,1,6.55-6.55h37.4a6.55,6.55,0,0,1,6.55,6.55v37.4A6.55,6.55,0,0,1,57.34,65.67Z"/><path class="cls-88" d="M57.31,65.64H13.36V21.69a6.55,6.55,0,0,1,6.55-6.55h37.4a6.55,6.55,0,0,1,6.55,6.55v37.4A6.55,6.55,0,0,1,57.31,65.64Z"/><path class="cls-89" d="M57.29,65.61h-44V21.66a6.55,6.55,0,0,1,6.55-6.55H57.29a6.54,6.54,0,0,1,6.54,6.55v37.4A6.54,6.54,0,0,1,57.29,65.61Z"/><path class="cls-90" d="M57.26,65.58h-44V21.63a6.55,6.55,0,0,1,6.55-6.55H57.26a6.54,6.54,0,0,1,6.54,6.55V59A6.54,6.54,0,0,1,57.26,65.58Z"/><path class="cls-91" d="M57.23,65.55h-44V21.6a6.55,6.55,0,0,1,6.55-6.55H57.23a6.54,6.54,0,0,1,6.54,6.55V59A6.54,6.54,0,0,1,57.23,65.55Z"/><path class="cls-92" d="M57.2,65.52h-44V21.57A6.55,6.55,0,0,1,19.79,15H57.2a6.54,6.54,0,0,1,6.54,6.55V59A6.54,6.54,0,0,1,57.2,65.52Z"/><path class="cls-93" d="M57.17,65.49h-44V21.54A6.55,6.55,0,0,1,19.76,15H57.17a6.54,6.54,0,0,1,6.54,6.55V59A6.54,6.54,0,0,1,57.17,65.49Z"/><path class="cls-94" d="M57.14,65.46H13.19V21.51A6.54,6.54,0,0,1,19.73,15H57.14a6.55,6.55,0,0,1,6.55,6.55V58.92A6.55,6.55,0,0,1,57.14,65.46Z"/><path class="cls-95" d="M57.11,65.43H13.16V21.48a6.54,6.54,0,0,1,6.54-6.55H57.11a6.55,6.55,0,0,1,6.55,6.55V58.89A6.55,6.55,0,0,1,57.11,65.43Z"/><path class="cls-96" d="M57.08,65.4H13.13V21.45a6.55,6.55,0,0,1,6.54-6.55H57.08a6.55,6.55,0,0,1,6.55,6.55V58.86A6.54,6.54,0,0,1,57.08,65.4Z"/><path class="cls-97" d="M57.05,65.37H13.1V21.42a6.55,6.55,0,0,1,6.54-6.55H57.05a6.55,6.55,0,0,1,6.55,6.55V58.83A6.54,6.54,0,0,1,57.05,65.37Z"/><path class="cls-98" d="M57,65.35H13.07v-44a6.54,6.54,0,0,1,6.54-6.54H57a6.54,6.54,0,0,1,6.55,6.54V58.8A6.55,6.55,0,0,1,57,65.35Z"/><path class="cls-99" d="M57,65.32H13v-44a6.54,6.54,0,0,1,6.55-6.54H57a6.54,6.54,0,0,1,6.55,6.54V58.77A6.55,6.55,0,0,1,57,65.32Z"/><path class="cls-100" d="M57,65.29H13v-44a6.54,6.54,0,0,1,6.55-6.54H57a6.54,6.54,0,0,1,6.55,6.54V58.74A6.55,6.55,0,0,1,57,65.29Z"/><path class="cls-101" d="M56.93,65.26H13v-44a6.54,6.54,0,0,1,6.55-6.54h37.4a6.54,6.54,0,0,1,6.55,6.54V58.71A6.55,6.55,0,0,1,56.93,65.26Z"/><path class="cls-102" d="M56.9,65.23H13v-44a6.54,6.54,0,0,1,6.55-6.54H56.9a6.54,6.54,0,0,1,6.55,6.54V58.68A6.55,6.55,0,0,1,56.9,65.23Z"/><path class="cls-103" d="M56.87,65.2H12.92V21.25a6.55,6.55,0,0,1,6.55-6.55h37.4a6.55,6.55,0,0,1,6.55,6.55v37.4A6.55,6.55,0,0,1,56.87,65.2Z"/><path class="cls-104" d="M56.84,65.17H12.89V21.22a6.55,6.55,0,0,1,6.55-6.55h37.4a6.55,6.55,0,0,1,6.55,6.55v37.4A6.55,6.55,0,0,1,56.84,65.17Z"/><path class="cls-105" d="M56.82,65.14h-44V21.19a6.55,6.55,0,0,1,6.55-6.55H56.82a6.54,6.54,0,0,1,6.54,6.55v37.4A6.54,6.54,0,0,1,56.82,65.14Z"/><path class="cls-106" d="M56.79,65.11h-44V21.16a6.55,6.55,0,0,1,6.55-6.55H56.79a6.54,6.54,0,0,1,6.54,6.55v37.4A6.54,6.54,0,0,1,56.79,65.11Z"/><path class="cls-107" d="M56.76,65.08h-44V21.13a6.55,6.55,0,0,1,6.55-6.55H56.76a6.54,6.54,0,0,1,6.54,6.55v37.4A6.54,6.54,0,0,1,56.76,65.08Z"/><path class="cls-108" d="M56.73,65.05h-44V21.1a6.55,6.55,0,0,1,6.55-6.55H56.73a6.54,6.54,0,0,1,6.54,6.55V58.5A6.54,6.54,0,0,1,56.73,65.05Z"/><path class="cls-109" d="M56.7,65h-44V21.07a6.55,6.55,0,0,1,6.55-6.55H56.7a6.54,6.54,0,0,1,6.54,6.55V58.48A6.54,6.54,0,0,1,56.7,65Z"/><path class="cls-110" d="M56.67,65H12.72V21a6.54,6.54,0,0,1,6.54-6.55H56.67A6.55,6.55,0,0,1,63.22,21V58.45A6.55,6.55,0,0,1,56.67,65Z"/><path class="cls-111" d="M56.64,65H12.69V21a6.54,6.54,0,0,1,6.54-6.55H56.64A6.55,6.55,0,0,1,63.19,21V58.42A6.55,6.55,0,0,1,56.64,65Z"/><path class="cls-112" d="M56.61,64.93H12.66V21a6.55,6.55,0,0,1,6.54-6.55H56.61A6.55,6.55,0,0,1,63.16,21V58.39A6.54,6.54,0,0,1,56.61,64.93Z"/><path class="cls-113" d="M56.58,64.9H12.63V21a6.55,6.55,0,0,1,6.54-6.55H56.58A6.55,6.55,0,0,1,63.13,21V58.36A6.54,6.54,0,0,1,56.58,64.9Z"/><path class="cls-114" d="M56.55,64.88H12.6v-44a6.54,6.54,0,0,1,6.54-6.54H56.55a6.54,6.54,0,0,1,6.55,6.54V58.33A6.55,6.55,0,0,1,56.55,64.88Z"/><path class="cls-115" d="M56.52,64.85H12.57v-44a6.54,6.54,0,0,1,6.55-6.54h37.4a6.54,6.54,0,0,1,6.55,6.54V58.3A6.55,6.55,0,0,1,56.52,64.85Z"/><path class="cls-116" d="M56.49,64.82H12.54v-44a6.54,6.54,0,0,1,6.55-6.54h37.4A6.54,6.54,0,0,1,63,20.86V58.27A6.55,6.55,0,0,1,56.49,64.82Z"/><path class="cls-117" d="M56.46,64.79H12.51v-44a6.54,6.54,0,0,1,6.55-6.54h37.4A6.54,6.54,0,0,1,63,20.83V58.24A6.55,6.55,0,0,1,56.46,64.79Z"/><path class="cls-118" d="M56.43,64.76H12.48v-44A6.54,6.54,0,0,1,19,14.26h37.4A6.54,6.54,0,0,1,63,20.8V58.21A6.55,6.55,0,0,1,56.43,64.76Z"/><path class="cls-119" d="M56.4,64.73H12.45V20.78A6.55,6.55,0,0,1,19,14.23H56.4A6.55,6.55,0,0,1,63,20.78v37.4A6.55,6.55,0,0,1,56.4,64.73Z"/><path class="cls-120" d="M56.37,64.7H12.42V20.75A6.55,6.55,0,0,1,19,14.2h37.4a6.55,6.55,0,0,1,6.55,6.55v37.4A6.55,6.55,0,0,1,56.37,64.7Z"/><path class="cls-121" d="M56.35,64.67h-44V20.72a6.55,6.55,0,0,1,6.55-6.55H56.35a6.54,6.54,0,0,1,6.54,6.55v37.4A6.54,6.54,0,0,1,56.35,64.67Z"/><path class="cls-122" d="M56.32,64.64h-44V20.69a6.55,6.55,0,0,1,6.55-6.55H56.32a6.54,6.54,0,0,1,6.54,6.55v37.4A6.54,6.54,0,0,1,56.32,64.64Z"/><path class="cls-123" d="M56.29,64.61h-44V20.66a6.55,6.55,0,0,1,6.55-6.55H56.29a6.54,6.54,0,0,1,6.54,6.55v37.4A6.54,6.54,0,0,1,56.29,64.61Z"/><path class="cls-124" d="M56.26,64.58h-44V20.63a6.55,6.55,0,0,1,6.55-6.55H56.26a6.54,6.54,0,0,1,6.54,6.55V58A6.54,6.54,0,0,1,56.26,64.58Z"/><path class="cls-125" d="M56.23,64.55h-44V20.6a6.55,6.55,0,0,1,6.55-6.55H56.23a6.54,6.54,0,0,1,6.54,6.55V58A6.54,6.54,0,0,1,56.23,64.55Z"/><path class="cls-126" d="M56.2,64.52H12.25V20.57A6.54,6.54,0,0,1,18.79,14H56.2a6.55,6.55,0,0,1,6.55,6.55V58A6.55,6.55,0,0,1,56.2,64.52Z"/><path class="cls-127" d="M56.17,64.49H12.22V20.54A6.54,6.54,0,0,1,18.76,14H56.17a6.55,6.55,0,0,1,6.55,6.55V58A6.55,6.55,0,0,1,56.17,64.49Z"/><path class="cls-128" d="M56.14,64.46H12.19V20.51A6.55,6.55,0,0,1,18.73,14H56.14a6.55,6.55,0,0,1,6.55,6.55V57.92A6.54,6.54,0,0,1,56.14,64.46Z"/><path class="cls-129" d="M56.11,64.43H12.16V20.48a6.55,6.55,0,0,1,6.54-6.55H56.11a6.55,6.55,0,0,1,6.55,6.55V57.89A6.54,6.54,0,0,1,56.11,64.43Z"/><path class="cls-130" d="M56.08,64.41H12.13v-44a6.54,6.54,0,0,1,6.54-6.54H56.08a6.54,6.54,0,0,1,6.55,6.54V57.86A6.55,6.55,0,0,1,56.08,64.41Z"/><path class="cls-131" d="M56.05,64.38H12.1v-44a6.54,6.54,0,0,1,6.55-6.54h37.4a6.54,6.54,0,0,1,6.55,6.54V57.83A6.55,6.55,0,0,1,56.05,64.38Z"/><path class="cls-132" d="M56,64.35H12.07v-44a6.54,6.54,0,0,1,6.55-6.54H56a6.54,6.54,0,0,1,6.55,6.54V57.8A6.55,6.55,0,0,1,56,64.35Z"/><path class="cls-133" d="M56,64.32H12v-44a6.54,6.54,0,0,1,6.55-6.54H56a6.54,6.54,0,0,1,6.55,6.54V57.77A6.55,6.55,0,0,1,56,64.32Z"/><path class="cls-134" d="M56,64.29H12v-44a6.54,6.54,0,0,1,6.55-6.54H56a6.54,6.54,0,0,1,6.55,6.54V57.74A6.55,6.55,0,0,1,56,64.29Z"/><path class="cls-135" d="M55.93,64.26H12V20.31a6.55,6.55,0,0,1,6.55-6.55h37.4a6.55,6.55,0,0,1,6.55,6.55v37.4A6.55,6.55,0,0,1,55.93,64.26Z"/><path class="cls-136" d="M55.9,64.23H12V20.28a6.55,6.55,0,0,1,6.55-6.55H55.9a6.55,6.55,0,0,1,6.55,6.55v37.4A6.55,6.55,0,0,1,55.9,64.23Z"/><path class="cls-137" d="M55.88,64.2h-44V20.25a6.55,6.55,0,0,1,6.55-6.55H55.88a6.54,6.54,0,0,1,6.54,6.55v37.4A6.54,6.54,0,0,1,55.88,64.2Z"/><path class="cls-138" d="M55.85,64.17h-44V20.22a6.55,6.55,0,0,1,6.55-6.55H55.85a6.54,6.54,0,0,1,6.54,6.55v37.4A6.54,6.54,0,0,1,55.85,64.17Z"/><path class="cls-139" d="M55.82,64.14h-44V20.19a6.55,6.55,0,0,1,6.55-6.55H55.82a6.54,6.54,0,0,1,6.54,6.55v37.4A6.54,6.54,0,0,1,55.82,64.14Z"/><path class="cls-140" d="M55.79,64.11h-44V20.16a6.55,6.55,0,0,1,6.55-6.55H55.79a6.54,6.54,0,0,1,6.54,6.55v37.4A6.54,6.54,0,0,1,55.79,64.11Z"/><path class="cls-141" d="M55.76,64.08h-44V20.13a6.55,6.55,0,0,1,6.55-6.55H55.76a6.54,6.54,0,0,1,6.54,6.55V57.54A6.54,6.54,0,0,1,55.76,64.08Z"/><path class="cls-142" d="M55.73,64.05H11.78V20.1a6.54,6.54,0,0,1,6.54-6.55H55.73a6.55,6.55,0,0,1,6.55,6.55V57.51A6.55,6.55,0,0,1,55.73,64.05Z"/><path class="cls-143" d="M55.7,64H11.75V20.07a6.54,6.54,0,0,1,6.54-6.55H55.7a6.55,6.55,0,0,1,6.55,6.55V57.48A6.55,6.55,0,0,1,55.7,64Z"/><path class="cls-144" d="M55.67,64H11.72V20a6.55,6.55,0,0,1,6.54-6.55H55.67A6.55,6.55,0,0,1,62.22,20V57.45A6.54,6.54,0,0,1,55.67,64Z"/><path class="cls-145" d="M55.64,64H11.69V20a6.55,6.55,0,0,1,6.54-6.55H55.64A6.55,6.55,0,0,1,62.19,20V57.42A6.54,6.54,0,0,1,55.64,64Z"/><path class="cls-146" d="M55.61,63.94H11.66V20a6.54,6.54,0,0,1,6.54-6.54H55.61A6.54,6.54,0,0,1,62.16,20V57.39A6.55,6.55,0,0,1,55.61,63.94Z"/><path class="cls-147" d="M55.58,63.91H11.63V20a6.54,6.54,0,0,1,6.55-6.54h37.4A6.54,6.54,0,0,1,62.13,20V57.36A6.55,6.55,0,0,1,55.58,63.91Z"/><path class="cls-148" d="M55.55,63.88H11.6v-44a6.54,6.54,0,0,1,6.55-6.54h37.4a6.54,6.54,0,0,1,6.55,6.54V57.33A6.55,6.55,0,0,1,55.55,63.88Z"/><path class="cls-149" d="M55.52,63.85H11.57v-44a6.54,6.54,0,0,1,6.55-6.54h37.4a6.54,6.54,0,0,1,6.55,6.54V57.3A6.55,6.55,0,0,1,55.52,63.85Z"/><path class="cls-150" d="M55.49,63.82H11.54v-44a6.54,6.54,0,0,1,6.55-6.54h37.4A6.54,6.54,0,0,1,62,19.86V57.27A6.55,6.55,0,0,1,55.49,63.82Z"/><path class="cls-151" d="M55.46,63.79H11.51V19.84a6.55,6.55,0,0,1,6.55-6.55h37.4A6.55,6.55,0,0,1,62,19.84v37.4A6.55,6.55,0,0,1,55.46,63.79Z"/><path class="cls-152" d="M55.43,63.76H11.48V19.81A6.55,6.55,0,0,1,18,13.26h37.4A6.55,6.55,0,0,1,62,19.81v37.4A6.55,6.55,0,0,1,55.43,63.76Z"/><path class="cls-153" d="M55.41,63.73h-44V19.78A6.55,6.55,0,0,1,18,13.23H55.41A6.54,6.54,0,0,1,62,19.78v37.4A6.54,6.54,0,0,1,55.41,63.73Z"/><path class="cls-154" d="M55.38,63.7h-44V19.75A6.55,6.55,0,0,1,18,13.2H55.38a6.54,6.54,0,0,1,6.54,6.55v37.4A6.54,6.54,0,0,1,55.38,63.7Z"/><path class="cls-155" d="M55.35,63.67h-44V19.72a6.55,6.55,0,0,1,6.55-6.55H55.35a6.54,6.54,0,0,1,6.54,6.55v37.4A6.54,6.54,0,0,1,55.35,63.67Z"/><path class="cls-156" d="M55.32,63.64h-44V19.69a6.55,6.55,0,0,1,6.55-6.55H55.32a6.54,6.54,0,0,1,6.54,6.55v37.4A6.54,6.54,0,0,1,55.32,63.64Z"/><path class="cls-157" d="M55.29,63.61h-44V19.66a6.55,6.55,0,0,1,6.55-6.55H55.29a6.54,6.54,0,0,1,6.54,6.55V57.07A6.54,6.54,0,0,1,55.29,63.61Z"/><path class="cls-158" d="M55.26,63.58H11.31V19.63a6.54,6.54,0,0,1,6.54-6.55H55.26a6.55,6.55,0,0,1,6.55,6.55V57A6.55,6.55,0,0,1,55.26,63.58Z"/><path class="cls-159" d="M55.23,63.55H11.28V19.6a6.54,6.54,0,0,1,6.54-6.55H55.23a6.55,6.55,0,0,1,6.55,6.55V57A6.55,6.55,0,0,1,55.23,63.55Z"/><path class="cls-160" d="M55.2,63.52H11.25V19.57A6.55,6.55,0,0,1,17.79,13H55.2a6.55,6.55,0,0,1,6.55,6.55V57A6.54,6.54,0,0,1,55.2,63.52Z"/><path class="cls-161" d="M55.17,63.49H11.22V19.54A6.55,6.55,0,0,1,17.76,13H55.17a6.55,6.55,0,0,1,6.55,6.55V57A6.54,6.54,0,0,1,55.17,63.49Z"/><path class="cls-162" d="M55.14,63.47H11.19v-44A6.54,6.54,0,0,1,17.73,13H55.14a6.54,6.54,0,0,1,6.55,6.54V56.92A6.55,6.55,0,0,1,55.14,63.47Z"/><path class="cls-163" d="M55.11,63.44H11.16v-44a6.54,6.54,0,0,1,6.55-6.54h37.4a6.54,6.54,0,0,1,6.55,6.54V56.89A6.55,6.55,0,0,1,55.11,63.44Z"/><path class="cls-164" d="M55.08,63.41H11.13v-44a6.54,6.54,0,0,1,6.55-6.54h37.4a6.54,6.54,0,0,1,6.55,6.54V56.86A6.55,6.55,0,0,1,55.08,63.41Z"/><path class="cls-165" d="M55.05,63.38H11.1v-44a6.54,6.54,0,0,1,6.55-6.54h37.4a6.54,6.54,0,0,1,6.55,6.54V56.83A6.55,6.55,0,0,1,55.05,63.38Z"/><path class="cls-166" d="M55,63.35H11.07v-44a6.54,6.54,0,0,1,6.55-6.54H55a6.54,6.54,0,0,1,6.55,6.54V56.8A6.55,6.55,0,0,1,55,63.35Z"/><path class="cls-167" d="M55,63.32H11V19.37a6.55,6.55,0,0,1,6.55-6.55H55a6.55,6.55,0,0,1,6.55,6.55v37.4A6.55,6.55,0,0,1,55,63.32Z"/><path class="cls-168" d="M55,63.29H11V19.34a6.55,6.55,0,0,1,6.55-6.55H55a6.55,6.55,0,0,1,6.55,6.55v37.4A6.55,6.55,0,0,1,55,63.29Z"/><path class="cls-169" d="M54.94,63.26H11V19.31a6.55,6.55,0,0,1,6.55-6.55H54.94a6.54,6.54,0,0,1,6.54,6.55v37.4A6.54,6.54,0,0,1,54.94,63.26Z"/><path class="cls-170" d="M54.91,63.23H11V19.28a6.55,6.55,0,0,1,6.55-6.55H54.91a6.54,6.54,0,0,1,6.54,6.55v37.4A6.54,6.54,0,0,1,54.91,63.23Z"/><path class="cls-171" d="M54.88,63.2h-44V19.25a6.55,6.55,0,0,1,6.55-6.55H54.88a6.54,6.54,0,0,1,6.54,6.55v37.4A6.54,6.54,0,0,1,54.88,63.2Z"/><path class="cls-172" d="M54.85,63.17h-44V19.22a6.55,6.55,0,0,1,6.55-6.55H54.85a6.54,6.54,0,0,1,6.54,6.55v37.4A6.54,6.54,0,0,1,54.85,63.17Z"/><path class="cls-173" d="M54.82,63.14h-44V19.19a6.55,6.55,0,0,1,6.55-6.55H54.82a6.54,6.54,0,0,1,6.54,6.55V56.6A6.54,6.54,0,0,1,54.82,63.14Z"/><path class="cls-174" d="M54.79,63.11H10.84V19.16a6.54,6.54,0,0,1,6.54-6.55H54.79a6.55,6.55,0,0,1,6.55,6.55V56.57A6.55,6.55,0,0,1,54.79,63.11Z"/><path class="cls-175" d="M54.76,63.08H10.81V19.13a6.54,6.54,0,0,1,6.54-6.55H54.76a6.55,6.55,0,0,1,6.55,6.55V56.54A6.55,6.55,0,0,1,54.76,63.08Z"/><path class="cls-176" d="M54.73,63.05H10.78V19.1a6.55,6.55,0,0,1,6.54-6.55H54.73a6.55,6.55,0,0,1,6.55,6.55V56.51A6.54,6.54,0,0,1,54.73,63.05Z"/><path class="cls-177" d="M54.7,63H10.75V19.07a6.55,6.55,0,0,1,6.54-6.55H54.7a6.55,6.55,0,0,1,6.55,6.55V56.48A6.54,6.54,0,0,1,54.7,63Z"/><path class="cls-178" d="M54.67,63H10.72V19a6.54,6.54,0,0,1,6.54-6.54H54.67A6.54,6.54,0,0,1,61.22,19V56.45A6.55,6.55,0,0,1,54.67,63Z"/><path class="cls-179" d="M54.64,63H10.69V19a6.54,6.54,0,0,1,6.55-6.54h37.4A6.54,6.54,0,0,1,61.19,19V56.42A6.55,6.55,0,0,1,54.64,63Z"/><path class="cls-180" d="M54.61,62.94H10.66V19a6.54,6.54,0,0,1,6.55-6.54h37.4A6.54,6.54,0,0,1,61.16,19V56.39A6.55,6.55,0,0,1,54.61,62.94Z"/><path class="cls-181" d="M54.58,62.91H10.63V19a6.54,6.54,0,0,1,6.55-6.54h37.4A6.54,6.54,0,0,1,61.13,19V56.36A6.55,6.55,0,0,1,54.58,62.91Z"/><path class="cls-182" d="M54.55,62.88H10.6v-44a6.54,6.54,0,0,1,6.55-6.54h37.4a6.54,6.54,0,0,1,6.55,6.54V56.33A6.55,6.55,0,0,1,54.55,62.88Z"/><path class="cls-183" d="M54.52,62.85H10.57V18.9a6.55,6.55,0,0,1,6.55-6.55h37.4a6.55,6.55,0,0,1,6.55,6.55V56.3A6.55,6.55,0,0,1,54.52,62.85Z"/><path class="cls-184" d="M54.49,62.82H10.54V18.87a6.55,6.55,0,0,1,6.55-6.55h37.4A6.55,6.55,0,0,1,61,18.87v37.4A6.55,6.55,0,0,1,54.49,62.82Z"/><path class="cls-185" d="M54.47,62.79h-44V18.84a6.55,6.55,0,0,1,6.55-6.55H54.47A6.54,6.54,0,0,1,61,18.84v37.4A6.54,6.54,0,0,1,54.47,62.79Z"/><path class="cls-186" d="M54.44,62.76h-44V18.81A6.55,6.55,0,0,1,17,12.26H54.44A6.54,6.54,0,0,1,61,18.81v37.4A6.54,6.54,0,0,1,54.44,62.76Z"/><path class="cls-187" d="M54.41,62.73h-44V18.78A6.55,6.55,0,0,1,17,12.23H54.41A6.54,6.54,0,0,1,61,18.78v37.4A6.54,6.54,0,0,1,54.41,62.73Z"/><path class="cls-188" d="M54.38,62.7h-44V18.75A6.55,6.55,0,0,1,17,12.2H54.38a6.54,6.54,0,0,1,6.54,6.55v37.4A6.54,6.54,0,0,1,54.38,62.7Z"/><path class="cls-189" d="M54.35,62.67h-44V18.72a6.55,6.55,0,0,1,6.55-6.55H54.35a6.54,6.54,0,0,1,6.54,6.55V56.13A6.54,6.54,0,0,1,54.35,62.67Z"/><path class="cls-190" d="M54.32,62.64H10.37V18.69a6.54,6.54,0,0,1,6.54-6.55H54.32a6.55,6.55,0,0,1,6.55,6.55V56.1A6.55,6.55,0,0,1,54.32,62.64Z"/><path class="cls-191" d="M54.29,62.61H10.34V18.66a6.54,6.54,0,0,1,6.54-6.55H54.29a6.55,6.55,0,0,1,6.55,6.55V56.07A6.55,6.55,0,0,1,54.29,62.61Z"/><path class="cls-192" d="M54.26,62.58H10.31V18.63a6.55,6.55,0,0,1,6.54-6.55H54.26a6.55,6.55,0,0,1,6.55,6.55V56A6.54,6.54,0,0,1,54.26,62.58Z"/><path class="cls-193" d="M54.23,62.55H10.28V18.6a6.55,6.55,0,0,1,6.54-6.55H54.23a6.55,6.55,0,0,1,6.55,6.55V56A6.54,6.54,0,0,1,54.23,62.55Z"/><path class="cls-194" d="M54.2,62.53H10.25v-44A6.54,6.54,0,0,1,16.79,12H54.2a6.54,6.54,0,0,1,6.55,6.54V56A6.55,6.55,0,0,1,54.2,62.53Z"/><path class="cls-195" d="M54.17,62.5H10.22v-44A6.54,6.54,0,0,1,16.77,12h37.4a6.54,6.54,0,0,1,6.55,6.54V56A6.55,6.55,0,0,1,54.17,62.5Z"/><path class="cls-196" d="M54.14,62.47H10.19v-44A6.54,6.54,0,0,1,16.74,12h37.4a6.54,6.54,0,0,1,6.55,6.54V55.92A6.55,6.55,0,0,1,54.14,62.47Z"/><path class="cls-197" d="M54.11,62.44H10.16v-44a6.54,6.54,0,0,1,6.55-6.54h37.4a6.54,6.54,0,0,1,6.55,6.54V55.89A6.55,6.55,0,0,1,54.11,62.44Z"/><path class="cls-198" d="M54.08,62.41H10.13v-44a6.54,6.54,0,0,1,6.55-6.54h37.4a6.54,6.54,0,0,1,6.55,6.54V55.86A6.55,6.55,0,0,1,54.08,62.41Z"/><path class="cls-199" d="M54.05,62.38H10.1V18.43a6.55,6.55,0,0,1,6.55-6.55h37.4a6.55,6.55,0,0,1,6.55,6.55v37.4A6.55,6.55,0,0,1,54.05,62.38Z"/><path class="cls-200" d="M54,62.35H10.07V18.4a6.55,6.55,0,0,1,6.55-6.55H54a6.55,6.55,0,0,1,6.55,6.55V55.8A6.55,6.55,0,0,1,54,62.35Z"/><path class="cls-201" d="M54,62.32H10V18.37a6.55,6.55,0,0,1,6.55-6.55H54a6.54,6.54,0,0,1,6.54,6.55v37.4A6.54,6.54,0,0,1,54,62.32Z"/><path class="cls-202" d="M54,62.29H10V18.34a6.55,6.55,0,0,1,6.55-6.55H54a6.54,6.54,0,0,1,6.54,6.55v37.4A6.54,6.54,0,0,1,54,62.29Z"/><path class="cls-203" d="M53.94,62.26H10V18.31a6.55,6.55,0,0,1,6.55-6.55H53.94a6.54,6.54,0,0,1,6.54,6.55v37.4A6.54,6.54,0,0,1,53.94,62.26Z"/><path class="cls-204" d="M53.91,62.23H10V18.28a6.55,6.55,0,0,1,6.55-6.55H53.91a6.54,6.54,0,0,1,6.54,6.55v37.4A6.54,6.54,0,0,1,53.91,62.23Z"/><path class="cls-205" d="M53.88,62.2h-44V18.25a6.55,6.55,0,0,1,6.55-6.55H53.88a6.54,6.54,0,0,1,6.54,6.55V55.66A6.54,6.54,0,0,1,53.88,62.2Z"/><path class="cls-206" d="M53.85,62.17H9.9V18.22a6.54,6.54,0,0,1,6.54-6.55H53.85a6.55,6.55,0,0,1,6.55,6.55V55.63A6.55,6.55,0,0,1,53.85,62.17Z"/><path class="cls-207" d="M53.82,62.14H9.87V18.19a6.54,6.54,0,0,1,6.54-6.55H53.82a6.55,6.55,0,0,1,6.55,6.55V55.6A6.55,6.55,0,0,1,53.82,62.14Z"/><path class="cls-208" d="M53.79,62.11H9.84V18.16a6.55,6.55,0,0,1,6.54-6.55H53.79a6.55,6.55,0,0,1,6.55,6.55V55.57A6.54,6.54,0,0,1,53.79,62.11Z"/><path class="cls-209" d="M53.76,62.08H9.81V18.13a6.55,6.55,0,0,1,6.54-6.55H53.76a6.55,6.55,0,0,1,6.55,6.55V55.54A6.54,6.54,0,0,1,53.76,62.08Z"/><path class="cls-210" d="M53.73,62.06H9.78v-44a6.54,6.54,0,0,1,6.54-6.54H53.73a6.54,6.54,0,0,1,6.55,6.54V55.51A6.55,6.55,0,0,1,53.73,62.06Z"/><path class="cls-211" d="M53.7,62H9.75v-44a6.54,6.54,0,0,1,6.55-6.54H53.7a6.54,6.54,0,0,1,6.55,6.54V55.48A6.55,6.55,0,0,1,53.7,62Z"/><path class="cls-212" d="M53.67,62H9.72V18a6.54,6.54,0,0,1,6.55-6.54h37.4A6.54,6.54,0,0,1,60.22,18V55.45A6.55,6.55,0,0,1,53.67,62Z"/><path class="cls-213" d="M53.64,62H9.69V18a6.54,6.54,0,0,1,6.55-6.54h37.4A6.54,6.54,0,0,1,60.19,18V55.42A6.55,6.55,0,0,1,53.64,62Z"/><path class="cls-214" d="M53.61,61.94H9.66V18a6.54,6.54,0,0,1,6.55-6.54h37.4A6.54,6.54,0,0,1,60.16,18V55.39A6.55,6.55,0,0,1,53.61,61.94Z"/><path class="cls-215" d="M53.58,61.91H9.63V18a6.55,6.55,0,0,1,6.55-6.55h37.4A6.55,6.55,0,0,1,60.13,18v37.4A6.55,6.55,0,0,1,53.58,61.91Z"/><path class="cls-216" d="M53.55,61.88H9.6V17.93a6.55,6.55,0,0,1,6.55-6.55h37.4a6.55,6.55,0,0,1,6.55,6.55v37.4A6.55,6.55,0,0,1,53.55,61.88Z"/><path class="cls-217" d="M53.53,61.85h-44V17.9a6.55,6.55,0,0,1,6.55-6.55H53.53a6.54,6.54,0,0,1,6.54,6.55V55.3A6.54,6.54,0,0,1,53.53,61.85Z"/><path class="cls-218" d="M53.5,61.82h-44V17.87a6.55,6.55,0,0,1,6.55-6.55H53.5A6.54,6.54,0,0,1,60,17.87v37.4A6.54,6.54,0,0,1,53.5,61.82Z"/><path class="cls-219" d="M53.47,61.79h-44V17.84a6.55,6.55,0,0,1,6.55-6.55H53.47A6.54,6.54,0,0,1,60,17.84v37.4A6.54,6.54,0,0,1,53.47,61.79Z"/><path class="cls-220" d="M53.44,61.76h-44V17.81A6.55,6.55,0,0,1,16,11.26H53.44A6.54,6.54,0,0,1,60,17.81v37.4A6.54,6.54,0,0,1,53.44,61.76Z"/><path class="cls-221" d="M53.41,61.73h-44V17.78A6.55,6.55,0,0,1,16,11.23H53.41A6.54,6.54,0,0,1,60,17.78V55.19A6.54,6.54,0,0,1,53.41,61.73Z"/><path class="cls-222" d="M53.38,61.7H9.43V17.75A6.54,6.54,0,0,1,16,11.2H53.38a6.55,6.55,0,0,1,6.55,6.55V55.16A6.55,6.55,0,0,1,53.38,61.7Z"/><path class="cls-223" d="M53.35,61.67H9.4V17.72a6.54,6.54,0,0,1,6.54-6.55H53.35a6.55,6.55,0,0,1,6.55,6.55V55.13A6.55,6.55,0,0,1,53.35,61.67Z"/><path class="cls-224" d="M53.32,61.64H9.37V17.69a6.55,6.55,0,0,1,6.54-6.55H53.32a6.55,6.55,0,0,1,6.55,6.55V55.1A6.54,6.54,0,0,1,53.32,61.64Z"/><path class="cls-225" d="M53.29,61.61H9.34V17.66a6.55,6.55,0,0,1,6.54-6.55H53.29a6.55,6.55,0,0,1,6.55,6.55V55.07A6.54,6.54,0,0,1,53.29,61.61Z"/><path class="cls-226" d="M53.26,61.59H9.31v-44a6.54,6.54,0,0,1,6.54-6.54H53.26a6.54,6.54,0,0,1,6.55,6.54V55A6.55,6.55,0,0,1,53.26,61.59Z"/><path class="cls-227" d="M53.23,61.56H9.28v-44a6.54,6.54,0,0,1,6.55-6.54h37.4a6.54,6.54,0,0,1,6.55,6.54V55A6.55,6.55,0,0,1,53.23,61.56Z"/><path class="cls-228" d="M53.2,61.53H9.25v-44A6.54,6.54,0,0,1,15.8,11H53.2a6.54,6.54,0,0,1,6.55,6.54V55A6.55,6.55,0,0,1,53.2,61.53Z"/><path class="cls-229" d="M53.17,61.5H9.22v-44A6.54,6.54,0,0,1,15.77,11h37.4a6.54,6.54,0,0,1,6.55,6.54V55A6.55,6.55,0,0,1,53.17,61.5Z"/><path class="cls-230" d="M53.14,61.47H9.19v-44A6.54,6.54,0,0,1,15.74,11h37.4a6.54,6.54,0,0,1,6.55,6.54V54.92A6.55,6.55,0,0,1,53.14,61.47Z"/><path class="cls-231" d="M53.11,61.44H9.16V17.49a6.55,6.55,0,0,1,6.55-6.55h37.4a6.55,6.55,0,0,1,6.55,6.55v37.4A6.55,6.55,0,0,1,53.11,61.44Z"/><path class="cls-232" d="M53.08,61.41H9.13V17.46a6.55,6.55,0,0,1,6.55-6.55h37.4a6.55,6.55,0,0,1,6.55,6.55v37.4A6.55,6.55,0,0,1,53.08,61.41Z"/><path class="cls-233" d="M53.06,61.38H9.1V17.43a6.55,6.55,0,0,1,6.55-6.55H53.06a6.54,6.54,0,0,1,6.54,6.55v37.4A6.54,6.54,0,0,1,53.06,61.38Z"/><path class="cls-234" d="M53,61.35h-44V17.4a6.55,6.55,0,0,1,6.55-6.55H53a6.54,6.54,0,0,1,6.54,6.55V54.8A6.54,6.54,0,0,1,53,61.35Z"/><path class="cls-235" d="M53,61.32H9V17.37a6.55,6.55,0,0,1,6.55-6.55H53a6.54,6.54,0,0,1,6.54,6.55v37.4A6.54,6.54,0,0,1,53,61.32Z"/><path class="cls-236" d="M53,61.29H9V17.34a6.55,6.55,0,0,1,6.55-6.55H53a6.54,6.54,0,0,1,6.54,6.55v37.4A6.54,6.54,0,0,1,53,61.29Z"/><path class="cls-237" d="M52.94,61.26H9V17.31a6.55,6.55,0,0,1,6.55-6.55H52.94a6.54,6.54,0,0,1,6.54,6.55V54.72A6.54,6.54,0,0,1,52.94,61.26Z"/><path class="cls-238" d="M52.91,61.23H9V17.28a6.54,6.54,0,0,1,6.54-6.55H52.91a6.55,6.55,0,0,1,6.55,6.55V54.69A6.55,6.55,0,0,1,52.91,61.23Z"/><path class="cls-239" d="M52.88,61.2H8.93V17.25a6.54,6.54,0,0,1,6.54-6.55H52.88a6.55,6.55,0,0,1,6.55,6.55V54.66A6.55,6.55,0,0,1,52.88,61.2Z"/><path class="cls-240" d="M52.85,61.17H8.9V17.22a6.55,6.55,0,0,1,6.54-6.55H52.85a6.55,6.55,0,0,1,6.55,6.55V54.63A6.54,6.54,0,0,1,52.85,61.17Z"/><path class="cls-241" d="M52.82,61.14H8.87V17.19a6.55,6.55,0,0,1,6.54-6.55H52.82a6.55,6.55,0,0,1,6.55,6.55V54.6A6.54,6.54,0,0,1,52.82,61.14Z"/><path class="cls-242" d="M52.79,61.12H8.84v-44a6.54,6.54,0,0,1,6.54-6.54H52.79a6.54,6.54,0,0,1,6.55,6.54V54.57A6.55,6.55,0,0,1,52.79,61.12Z"/><path class="cls-243" d="M52.76,61.09H8.81v-44a6.54,6.54,0,0,1,6.55-6.54h37.4a6.54,6.54,0,0,1,6.55,6.54V54.54A6.55,6.55,0,0,1,52.76,61.09Z"/><path class="cls-244" d="M52.73,61.06H8.78v-44a6.54,6.54,0,0,1,6.55-6.54h37.4a6.54,6.54,0,0,1,6.55,6.54V54.51A6.55,6.55,0,0,1,52.73,61.06Z"/><path class="cls-245" d="M52.7,61H8.75v-44a6.54,6.54,0,0,1,6.55-6.54H52.7a6.54,6.54,0,0,1,6.55,6.54V54.48A6.55,6.55,0,0,1,52.7,61Z"/><path class="cls-246" d="M52.67,61H8.72V17a6.54,6.54,0,0,1,6.55-6.54h37.4A6.54,6.54,0,0,1,59.22,17V54.45A6.55,6.55,0,0,1,52.67,61Z"/><path class="cls-247" d="M52.64,61H8.69V17a6.55,6.55,0,0,1,6.55-6.55h37.4A6.55,6.55,0,0,1,59.19,17v37.4A6.55,6.55,0,0,1,52.64,61Z"/><path class="cls-248" d="M52.61,60.94H8.66V17a6.55,6.55,0,0,1,6.55-6.55h37.4A6.55,6.55,0,0,1,59.16,17v37.4A6.55,6.55,0,0,1,52.61,60.94Z"/><path class="cls-249" d="M52.59,60.91h-44V17a6.55,6.55,0,0,1,6.55-6.55H52.59A6.54,6.54,0,0,1,59.13,17v37.4A6.54,6.54,0,0,1,52.59,60.91Z"/><path class="cls-250" d="M52.56,60.88H8.6V16.93a6.55,6.55,0,0,1,6.55-6.55H52.56a6.54,6.54,0,0,1,6.54,6.55v37.4A6.54,6.54,0,0,1,52.56,60.88Z"/><path class="cls-251" d="M52.53,60.85h-44V16.9a6.55,6.55,0,0,1,6.55-6.55H52.53a6.54,6.54,0,0,1,6.54,6.55V54.3A6.54,6.54,0,0,1,52.53,60.85Z"/><path class="cls-252" d="M52.5,60.82h-44V16.87a6.55,6.55,0,0,1,6.55-6.55H52.5A6.54,6.54,0,0,1,59,16.87v37.4A6.54,6.54,0,0,1,52.5,60.82Z"/><path class="cls-253" d="M52.47,60.79h-44V16.84a6.55,6.55,0,0,1,6.55-6.55H52.47A6.54,6.54,0,0,1,59,16.84V54.25A6.54,6.54,0,0,1,52.47,60.79Z"/><path class="cls-254" d="M52.44,60.76H8.49V16.81A6.54,6.54,0,0,1,15,10.26H52.44A6.55,6.55,0,0,1,59,16.81V54.22A6.55,6.55,0,0,1,52.44,60.76Z"/><path class="cls-255" d="M52.41,60.73H8.46V16.78A6.54,6.54,0,0,1,15,10.23H52.41A6.55,6.55,0,0,1,59,16.78V54.19A6.55,6.55,0,0,1,52.41,60.73Z"/><path class="cls-256" d="M52.38,60.7H8.43V16.75A6.55,6.55,0,0,1,15,10.2H52.38a6.55,6.55,0,0,1,6.55,6.55V54.16A6.54,6.54,0,0,1,52.38,60.7Z"/><path d="M52.35,60.67H8.4V16.72a6.55,6.55,0,0,1,6.54-6.55H52.35a6.55,6.55,0,0,1,6.55,6.55V54.13A6.54,6.54,0,0,1,52.35,60.67Z"/></g><path class="cls-257" d="M14.76,9.92H52.54a6.61,6.61,0,0,1,6.61,6.61V54.31a6.61,6.61,0,0,1-6.61,6.61H8.15a0,0,0,0,1,0,0V16.54A6.61,6.61,0,0,1,14.76,9.92Z"/><path class="cls-257" d="M16.67,12.52H56.38a0,0,0,0,1,0,0V52.6a5.46,5.46,0,0,1-5.46,5.46H16.67a5.46,5.46,0,0,1-5.46-5.46V18A5.46,5.46,0,0,1,16.67,12.52Z" transform="translate(67.59 70.59) rotate(180)"/><path class="cls-258" d="M50.53,58.33H10.94V18.43a6.16,6.16,0,0,1,6.13-6.18H50.53a6.16,6.16,0,0,1,6.12,6.18V52.16A6.16,6.16,0,0,1,50.53,58.33Zm-39-.54H50.53a5.61,5.61,0,0,0,5.58-5.63V18.43a5.61,5.61,0,0,0-5.58-5.64H17.07a5.62,5.62,0,0,0-5.59,5.64Z"/><path class="cls-259" d="M84.91,30.35a2.14,2.14,0,0,1-1.65.61H81.9v3H80.53V25.55h2.82a2,2,0,0,1,1.56.66,3,3,0,0,1,.58,2A3.07,3.07,0,0,1,84.91,30.35Zm-1-3.05a.92.92,0,0,0-.73-.28H81.9v2.49h1.23a.88.88,0,0,0,.73-.31,1.41,1.41,0,0,0,.27-1A1.34,1.34,0,0,0,83.86,27.3Z"/><path class="cls-259" d="M91.36,25.55v1.5h-2v7H88V27.05H86v-1.5Z"/><path class="cls-259" d="M96.24,25.55H97.8L100.12,34H98.63l-.43-1.73H95.78L95.33,34H93.9Zm-.09,5.26h1.69L97,27.48Z"/><path class="cls-259" d="M101.94,31.39a2.21,2.21,0,0,0,.25.87,1.29,1.29,0,0,0,1.17.52,1.9,1.9,0,0,0,.81-.14,1,1,0,0,0,.59-1,.78.78,0,0,0-.29-.64,2.8,2.8,0,0,0-.91-.4l-.71-.2a3.74,3.74,0,0,1-1.44-.65,2.29,2.29,0,0,1-.67-1.83,2.79,2.79,0,0,1,.65-1.88,2.39,2.39,0,0,1,1.91-.75,2.49,2.49,0,0,1,1.79.7,2.8,2.8,0,0,1,.78,2.06h-1.32A1.25,1.25,0,0,0,104,27a1.41,1.41,0,0,0-.82-.22,1.24,1.24,0,0,0-.86.28.94.94,0,0,0-.33.77.77.77,0,0,0,.32.67,3.31,3.31,0,0,0,.87.35l1.16.35a2.68,2.68,0,0,1,1.13.62,2.34,2.34,0,0,1,.59,1.72,2.75,2.75,0,0,1-.7,1.93,2.51,2.51,0,0,1-2,.76,2.73,2.73,0,0,1-2-.75,2.84,2.84,0,0,1-.75-2.08Z"/><path class="cls-259" d="M111.81,25.55v1.5h-2v7h-1.38V27.05h-2v-1.5Z"/><path class="cls-259" d="M116.83,25.77a1.71,1.71,0,0,1,.61.59,2.72,2.72,0,0,1,.33.71,3,3,0,0,1,.12.89,3.22,3.22,0,0,1-.23,1.18,1.48,1.48,0,0,1-.78.83,1.36,1.36,0,0,1,.64.66,3.43,3.43,0,0,1,.19,1.33v.56a4.63,4.63,0,0,0,0,.79.7.7,0,0,0,.25.48V34h-1.52a3.62,3.62,0,0,1-.08-.45,4.4,4.4,0,0,1-.06-.73V32a2,2,0,0,0-.22-1.08.94.94,0,0,0-.78-.27H114V34h-1.34V25.55h3.14A2.37,2.37,0,0,1,116.83,25.77ZM114,27v2.27h1.48a1.3,1.3,0,0,0,.66-.14,1,1,0,0,0,.39-.95,1.18,1.18,0,0,0-.38-1,1.1,1.1,0,0,0-.64-.15Z"/><path class="cls-259" d="M121.09,25.55h1.55L125,34h-1.49L123,32.27h-2.42L120.18,34h-1.44ZM121,30.81h1.68l-.83-3.33Z"/><path class="cls-259" d="M130.7,26.45a2.62,2.62,0,0,1,.3,1.29,2.23,2.23,0,0,1-.31,1.25,1.78,1.78,0,0,1-.5.48,1.52,1.52,0,0,1,.76.74,2.77,2.77,0,0,1,.26,1.24,3.11,3.11,0,0,1-.29,1.35,2.31,2.31,0,0,1-.47.66,1.68,1.68,0,0,1-.74.43,3.49,3.49,0,0,1-.93.11h-3V25.55H129A1.87,1.87,0,0,1,130.7,26.45Zm-3.57.57v1.86h1.6a1.09,1.09,0,0,0,.69-.21.88.88,0,0,0,.27-.74.82.82,0,0,0-.35-.78,2,2,0,0,0-.78-.13Zm0,3.26v2.26h1.6a1.24,1.24,0,0,0,.66-.15,1.17,1.17,0,0,0,.43-1.06,1,1,0,0,0-.42-.9,1.27,1.27,0,0,0-.65-.15Z"/><path class="cls-259" d="M132.39,25.55h1.39v5.19a3.83,3.83,0,0,0,.16,1.27,1.18,1.18,0,0,0,2.17,0,3.83,3.83,0,0,0,.16-1.27V25.55h1.39v5.2a5.65,5.65,0,0,1-.32,2.1,2.64,2.64,0,0,1-4.63,0,5.65,5.65,0,0,1-.32-2.1Z"/><path class="cls-259" d="M140.86,25.55h1.55L144.73,34h-1.48l-.44-1.73h-2.42L140,34h-1.44Zm-.09,5.26h1.68l-.83-3.33Z"/><path class="cls-259" d="M145.55,25.55H147l2.6,5.89V25.55h1.28V34H149.5l-2.67-6v6h-1.28Z"/><path class="cls-259" d="M154,25.55h1.55L157.92,34h-1.49L156,32.27h-2.41L153.13,34h-1.44ZM154,30.81h1.68l-.83-3.33Z"/><path class="cls-259" d="M71.18,45.49a1.91,1.91,0,0,0,.25.86,1.26,1.26,0,0,0,1.16.52,2,2,0,0,0,.81-.13,1,1,0,0,0,.59-1,.79.79,0,0,0-.29-.65,2.8,2.8,0,0,0-.91-.4l-.71-.2a3.74,3.74,0,0,1-1.44-.65A2.29,2.29,0,0,1,70,42a2.79,2.79,0,0,1,.65-1.88,2.39,2.39,0,0,1,1.91-.75,2.46,2.46,0,0,1,1.79.71,2.76,2.76,0,0,1,.78,2H73.78a1.25,1.25,0,0,0-.53-1.08,1.49,1.49,0,0,0-.82-.22,1.29,1.29,0,0,0-.86.28.94.94,0,0,0-.33.77.76.76,0,0,0,.32.67,3.31,3.31,0,0,0,.87.35l1.16.35a2.68,2.68,0,0,1,1.13.62,2.36,2.36,0,0,1,.59,1.72,2.73,2.73,0,0,1-.7,1.93,2.5,2.5,0,0,1-2,.76,2.73,2.73,0,0,1-2-.75,2.79,2.79,0,0,1-.74-2.07Z"/><path class="cls-259" d="M81.13,41.14H77.65v1.79h3.2V44.4h-3.2v2.18h3.64V48.1h-5V39.64h4.82Z"/><path class="cls-259" d="M82.34,39.64h1.44l2.6,5.9v-5.9h1.28V48.1H86.29l-2.67-6v6H82.34Z"/><path class="cls-259" d="M92.8,39.83a2.31,2.31,0,0,1,1.12,1.07,4.48,4.48,0,0,1,.47,1.36,8.73,8.73,0,0,1,.12,1.4A7,7,0,0,1,94,46.52a2.34,2.34,0,0,1-2.21,1.58H89V39.64h2.83A2.69,2.69,0,0,1,92.8,39.83Zm-2.52,1.28v5.52h1.27c.65,0,1.1-.41,1.36-1.24a5.42,5.42,0,0,0,.21-1.61,4.91,4.91,0,0,0-.32-2,1.23,1.23,0,0,0-1.25-.69Z"/><path class="cls-259" d="M95.53,48.1V39.64H96.9v3.23h2.55V39.64h1.36V48.1H99.45V44.32H96.9V48.1Z"/><path class="cls-259" d="M104,39.64h1.55l2.33,8.46H106.4L106,46.36h-2.42l-.45,1.74h-1.43Zm-.09,5.26h1.68l-.83-3.32Z"/><path class="cls-259" d="M108.7,39.64h1.44l2.61,5.9v-5.9H114V48.1h-1.38l-2.67-6v6H108.7Z"/><path class="cls-259" d="M119.73,42.28a1.62,1.62,0,0,0-.76-1.21,1.51,1.51,0,0,0-.76-.19,1.53,1.53,0,0,0-1.3.77A4.25,4.25,0,0,0,116.4,44a3.41,3.41,0,0,0,.55,2.2,1.64,1.64,0,0,0,1.26.65,1.42,1.42,0,0,0,1.13-.51,2.44,2.44,0,0,0,.55-1.34h-1.52V43.56h2.73V48.1h-.91L120.05,47a3.7,3.7,0,0,1-.71.85,2.12,2.12,0,0,1-1.34.42,2.5,2.5,0,0,1-2.13-1.16A5.26,5.26,0,0,1,115,44a5.62,5.62,0,0,1,.87-3.29,2.73,2.73,0,0,1,2.33-1.23,2.64,2.64,0,0,1,2,.81,3.39,3.39,0,0,1,.87,2Z"/><path class="cls-259" d="M129.36,44.44a2.17,2.17,0,0,1-1.65.62h-1.37v3H125V39.64h2.82a2,2,0,0,1,1.55.66,3,3,0,0,1,.58,2A3.13,3.13,0,0,1,129.36,44.44Zm-1.05-3a1,1,0,0,0-.73-.28h-1.24V43.6h1.24a.91.91,0,0,0,.73-.3,1.52,1.52,0,0,0,.26-1A1.39,1.39,0,0,0,128.31,41.39Z"/><path class="cls-259" d="M135.24,39.86a1.74,1.74,0,0,1,.62.59,2.88,2.88,0,0,1,.33.71,3,3,0,0,1,.12.89,3.12,3.12,0,0,1-.24,1.19,1.43,1.43,0,0,1-.78.82,1.36,1.36,0,0,1,.65.67,3.61,3.61,0,0,1,.19,1.32v.57a6.59,6.59,0,0,0,0,.78.71.71,0,0,0,.26.48v.22H134.9c0-.19-.07-.34-.09-.46a5.71,5.71,0,0,1-.05-.73v-.78a2,2,0,0,0-.22-1.08.94.94,0,0,0-.78-.27h-1.34V48.1h-1.34V39.64h3.14A2.29,2.29,0,0,1,135.24,39.86Zm-2.83,1.25v2.27h1.47a1.16,1.16,0,0,0,.66-.14,1,1,0,0,0,.39-1,1.19,1.19,0,0,0-.37-1,1.12,1.12,0,0,0-.64-.15Z"/><path class="cls-259" d="M139.5,39.64h1.56l2.32,8.46h-1.49l-.43-1.74H139l-.45,1.74h-1.43Zm-.09,5.26h1.68l-.82-3.32Z"/><path class="cls-259" d="M144.19,39.64h1.44l2.61,5.9v-5.9h1.28V48.1h-1.37l-2.68-6v6h-1.28Z"/><path class="cls-259" d="M152.68,39.64h1.56l2.32,8.46h-1.49l-.43-1.74h-2.42l-.44,1.74h-1.44Zm-.09,5.26h1.69l-.83-3.32Z"/><path class="cls-259" d="M157.79,39.64l.87,4.84.19,1.35.19-1.32.74-4.87h1.45l.78,4.84.2,1.35.2-1.3.88-4.89h1.39l-1.84,8.46h-1.32l-.79-5-.23-1.63-.24,1.63-.79,5H158.2l-1.87-8.46Z"/><path class="cls-259" d="M166.89,39.64h1.55l2.33,8.46h-1.49l-.43-1.74h-2.42L166,48.1h-1.43Zm-.09,5.26h1.68l-.83-3.32Z"/><polygon class="cls-260" points="21.18 31.2 20.54 32.31 18.47 27.65 23.54 27.12 22.9 28.23 27.65 30.97 27.19 26.74 14.5 25.36 22.04 35.66 25.93 33.94 21.18 31.2"/><polygon class="cls-261" points="22.9 43.09 23.54 44.19 18.47 43.66 20.54 39.01 21.18 40.12 25.93 37.37 22.04 35.66 14.5 45.95 27.19 44.57 27.65 40.35 22.9 43.09"/><polygon class="cls-262" points="41.77 28.23 41.13 27.12 46.2 27.65 44.13 32.31 43.49 31.2 38.74 33.94 42.63 35.66 50.17 25.36 37.48 26.74 37.02 30.97 41.77 28.23"/><polygon class="cls-263" points="30.62 23.77 29.34 23.77 32.34 19.64 35.33 23.77 34.05 23.77 34.05 29.25 37.48 26.74 32.34 15.07 27.19 26.74 30.62 29.25 30.62 23.77"/><polygon class="cls-264" points="38.74 37.37 43.49 40.12 44.13 39.01 46.2 43.66 41.13 44.19 41.77 43.09 37.02 40.35 37.48 44.57 50.17 45.95 42.63 35.66 38.74 37.37"/><polygon class="cls-265" points="34.05 47.55 35.33 47.55 32.34 51.67 29.34 47.55 30.62 47.55 30.62 42.06 27.19 44.57 32.34 56.25 37.48 44.57 34.05 42.06 34.05 47.55"/></g></svg>